<svg width="507" height="654" viewBox="0 0 507 654" fill="none" xmlns="http://www.w3.org/2000/svg">
<g filter="url(#filter0_d_155_1786)">
<g clip-path="url(#clip0_155_1786)">
<path d="M7 15C7 9.47716 11.4772 5 17 5H496V641H17C11.4771 641 7 636.523 7 631V15Z" fill="url(#paint0_linear_155_1786)"/>
<path opacity="0.2" d="M243.72 326.719C178.705 212.794 218.355 67.7341 332.281 2.71942C446.206 -62.2952 591.266 -22.6451 656.281 91.2805C721.295 205.206 681.645 350.266 567.719 415.28C453.794 480.295 308.734 440.645 243.72 326.719ZM586.333 131.198C543.364 55.9039 447.493 29.6987 372.198 72.6674C296.904 115.636 270.699 211.507 313.668 286.802C356.636 362.096 452.507 388.301 527.802 345.332C603.096 302.364 629.301 206.493 586.333 131.198Z" fill="#92D99D" fill-opacity="0.68"/>
<circle opacity="0.2" cx="449.787" cy="208.787" r="156.865" transform="rotate(150.288 449.787 208.787)" fill="#A1E5AC" fill-opacity="0.88"/>
</g>
</g>
<defs>
<filter id="filter0_d_155_1786" x="0" y="0" width="507" height="654" filterUnits="userSpaceOnUse" color-interpolation-filters="sRGB">
<feFlood flood-opacity="0" result="BackgroundImageFix"/>
<feColorMatrix in="SourceAlpha" type="matrix" values="0 0 0 0 0 0 0 0 0 0 0 0 0 0 0 0 0 0 127 0" result="hardAlpha"/>
<feOffset dx="2" dy="4"/>
<feGaussianBlur stdDeviation="4.5"/>
<feComposite in2="hardAlpha" operator="out"/>
<feColorMatrix type="matrix" values="0 0 0 0 0 0 0 0 0 0 0 0 0 0 0 0 0 0 0.12 0"/>
<feBlend mode="normal" in2="BackgroundImageFix" result="effect1_dropShadow_155_1786"/>
<feBlend mode="normal" in="SourceGraphic" in2="effect1_dropShadow_155_1786" result="shape"/>
</filter>
<linearGradient id="paint0_linear_155_1786" x1="57.5" y1="-28.5" x2="581.759" y2="83.3114" gradientUnits="userSpaceOnUse">
<stop stop-color="#1A8C4D"/>
<stop offset="1" stop-color="#33B45F"/>
</linearGradient>
<clipPath id="clip0_155_1786">
<path d="M7 15C7 9.47716 11.4772 5 17 5H496V641H17C11.4771 641 7 636.523 7 631V15Z" fill="white"/>
</clipPath>
</defs>
</svg>
