<svg width="69" height="119" viewBox="0 0 69 119" fill="none" xmlns="http://www.w3.org/2000/svg">
<g filter="url(#filter0_d_155_1789)">
<path d="M28.7018 2.19621C28.7018 4.37085 25.134 18.3361 23.2652 25.6416C25.8136 28.5298 31.41 35.8622 32.9492 42.1213C35.4976 52.4848 40.4245 83.5752 39.7449 101.924C41.0474 86.067 46.2009 84.2548 44.3321 43.8202C43.4898 25.5968 28.7018 -0.522096 28.7018 2.19621Z" fill="#076F56"/>
<path d="M10.3532 71.1469C16.1976 82.4278 28.1921 92.3836 33.4588 95.9514C32.0997 85.1348 34.4782 72.6759 25.6437 52.6284C21.9345 44.2113 10.0135 30.6555 4.06716 25.1056C3.72738 35.7523 4.50889 59.8659 10.3532 71.1469Z" fill="#89C53F"/>
<path d="M59.8951 26.8045L51.4004 36.9982L52.1848 51.0384C52.7924 61.9152 52.1301 72.8257 50.2112 83.5491L45.7939 99.6891C48.399 93.5729 56.2258 80.9437 58.3661 73.3555C60.2349 66.7296 63.1231 39.5466 59.8951 26.8045Z" fill="#89C53F"/>
</g>
<path d="M14.22 115.704L11.448 105.904H13.142L15.2 113.562L17.426 105.904H18.91L21.122 113.562L23.18 105.904H24.874L22.102 115.704H20.24L18.168 108.55L16.082 115.704H14.22ZM27.1909 107.374C27.0042 107.561 26.7802 107.654 26.5189 107.654C26.2575 107.654 26.0289 107.561 25.8329 107.374C25.6462 107.178 25.5529 106.95 25.5529 106.688C25.5529 106.427 25.6462 106.203 25.8329 106.016C26.0195 105.82 26.2482 105.722 26.5189 105.722C26.7895 105.722 27.0182 105.82 27.2049 106.016C27.3915 106.203 27.4849 106.427 27.4849 106.688C27.4849 106.95 27.3869 107.178 27.1909 107.374ZM25.7629 115.704V108.704H27.2749V115.704H25.7629ZM32.7124 108.522C33.5151 108.522 34.1638 108.779 34.6584 109.292C35.1531 109.806 35.4004 110.51 35.4004 111.406V115.704H33.8884V111.56C33.8884 111.038 33.7484 110.636 33.4684 110.356C33.1884 110.076 32.8058 109.936 32.3204 109.936C31.7884 109.936 31.3591 110.104 31.0324 110.44C30.7058 110.767 30.5424 111.271 30.5424 111.952V115.704H29.0304V108.704H30.5424V109.6C30.9998 108.882 31.7231 108.522 32.7124 108.522ZM38.3865 110.636C38.3865 110.87 38.5125 111.056 38.7645 111.196C39.0258 111.327 39.3385 111.444 39.7025 111.546C40.0758 111.64 40.4492 111.752 40.8225 111.882C41.1958 112.013 41.5085 112.237 41.7605 112.554C42.0218 112.862 42.1525 113.254 42.1525 113.73C42.1525 114.402 41.8912 114.93 41.3685 115.312C40.8552 115.695 40.2065 115.886 39.4225 115.886C38.7318 115.886 38.1392 115.742 37.6445 115.452C37.1498 115.163 36.7905 114.762 36.5665 114.248L37.8685 113.492C38.1112 114.164 38.6292 114.5 39.4225 114.5C40.2158 114.5 40.6125 114.239 40.6125 113.716C40.6125 113.492 40.4818 113.31 40.2205 113.17C39.9685 113.03 39.6558 112.914 39.2825 112.82C38.9185 112.718 38.5498 112.601 38.1765 112.47C37.8032 112.34 37.4858 112.125 37.2245 111.826C36.9725 111.518 36.8465 111.131 36.8465 110.664C36.8465 110.02 37.0892 109.502 37.5745 109.11C38.0692 108.718 38.6805 108.522 39.4085 108.522C39.9872 108.522 40.5005 108.653 40.9485 108.914C41.4058 109.166 41.7558 109.521 41.9985 109.978L40.7245 110.692C40.4818 110.16 40.0432 109.894 39.4085 109.894C39.1192 109.894 38.8765 109.96 38.6805 110.09C38.4845 110.212 38.3865 110.394 38.3865 110.636ZM44.8276 107.374C44.6409 107.561 44.4169 107.654 44.1556 107.654C43.8942 107.654 43.6656 107.561 43.4696 107.374C43.2829 107.178 43.1896 106.95 43.1896 106.688C43.1896 106.427 43.2829 106.203 43.4696 106.016C43.6562 105.82 43.8849 105.722 44.1556 105.722C44.4262 105.722 44.6549 105.82 44.8416 106.016C45.0282 106.203 45.1216 106.427 45.1216 106.688C45.1216 106.95 45.0236 107.178 44.8276 107.374ZM43.3996 115.704V108.704H44.9116V115.704H43.3996ZM52.2392 108.704H53.7232V115.382C53.7232 116.446 53.3732 117.263 52.6732 117.832C51.9732 118.402 51.1238 118.686 50.1252 118.686C48.5105 118.686 47.4045 118.122 46.8072 116.992L48.1092 116.236C48.4732 116.955 49.1545 117.314 50.1532 117.314C50.8065 117.314 51.3152 117.142 51.6792 116.796C52.0525 116.46 52.2392 115.989 52.2392 115.382V114.528C51.6698 115.34 50.8578 115.746 49.8032 115.746C48.8138 115.746 47.9785 115.396 47.2972 114.696C46.6158 113.987 46.2752 113.133 46.2752 112.134C46.2752 111.136 46.6158 110.286 47.2972 109.586C47.9785 108.877 48.8138 108.522 49.8032 108.522C50.8578 108.522 51.6698 108.928 52.2392 109.74V108.704ZM48.4172 113.702C48.8465 114.122 49.3785 114.332 50.0132 114.332C50.6478 114.332 51.1752 114.122 51.5952 113.702C52.0245 113.282 52.2392 112.76 52.2392 112.134C52.2392 111.509 52.0245 110.986 51.5952 110.566C51.1752 110.146 50.6478 109.936 50.0132 109.936C49.3785 109.936 48.8465 110.146 48.4172 110.566C47.9972 110.986 47.7872 111.509 47.7872 112.134C47.7872 112.76 47.9972 113.282 48.4172 113.702ZM59.1675 108.522C59.9702 108.522 60.6188 108.779 61.1135 109.292C61.6082 109.806 61.8555 110.51 61.8555 111.406V115.704H60.3435V111.56C60.3435 111.038 60.2035 110.636 59.9235 110.356C59.6435 110.076 59.2608 109.936 58.7755 109.936C58.2435 109.936 57.8142 110.104 57.4875 110.44C57.1608 110.767 56.9975 111.271 56.9975 111.952V115.704H55.4855V105.904H56.9975V109.6C57.4548 108.882 58.1782 108.522 59.1675 108.522ZM67.3896 110.16H65.6536V113.52C65.6536 113.81 65.7189 114.02 65.8496 114.15C65.9802 114.272 66.1716 114.342 66.4236 114.36C66.6849 114.37 67.0069 114.365 67.3896 114.346V115.704C66.2322 115.844 65.4016 115.746 64.8976 115.41C64.3936 115.065 64.1416 114.435 64.1416 113.52V110.16H62.8536V108.704H64.1416V107.192L65.6536 106.744V108.704H67.3896V110.16Z" fill="white"/>
<defs>
<filter id="filter0_d_155_1789" x="0.554353" y="0.277176" width="64.2409" height="106.815" filterUnits="userSpaceOnUse" color-interpolation-filters="sRGB">
<feFlood flood-opacity="0" result="BackgroundImageFix"/>
<feColorMatrix in="SourceAlpha" type="matrix" values="0 0 0 0 0 0 0 0 0 0 0 0 0 0 0 0 0 0 127 0" result="hardAlpha"/>
<feOffset dy="1.72282"/>
<feGaussianBlur stdDeviation="1.72282"/>
<feComposite in2="hardAlpha" operator="out"/>
<feColorMatrix type="matrix" values="0 0 0 0 0.537255 0 0 0 0 0.772549 0 0 0 0 0.247059 0 0 0 0.04 0"/>
<feBlend mode="normal" in2="BackgroundImageFix" result="effect1_dropShadow_155_1789"/>
<feBlend mode="normal" in="SourceGraphic" in2="effect1_dropShadow_155_1789" result="shape"/>
</filter>
</defs>
</svg>
